<mxfile host="app.diagrams.net" agent="Mozilla/5.0 (Macintosh; Intel Mac OS X 10_15_7) AppleWebKit/537.36 (KHTML, like Gecko) Chrome/127.0.0.0 Safari/537.36 Edg/127.0.0.0" version="24.7.4">
  <diagram name="第 1 页" id="GjRQRQxjSb0w8Wipvcud">
    <mxGraphModel dx="2019" dy="1185" grid="1" gridSize="10" guides="1" tooltips="1" connect="1" arrows="1" fold="1" page="1" pageScale="1" pageWidth="827" pageHeight="1169" math="0" shadow="0">
      <root>
        <mxCell id="0" />
        <mxCell id="1" parent="0" />
        <mxCell id="1wTuDXeft89T_cNOT2cx-1" value="" style="rounded=0;whiteSpace=wrap;html=1;" vertex="1" parent="1">
          <mxGeometry x="70" y="360" width="720" height="440" as="geometry" />
        </mxCell>
        <mxCell id="1wTuDXeft89T_cNOT2cx-2" value="" style="rounded=0;whiteSpace=wrap;html=1;" vertex="1" parent="1">
          <mxGeometry x="70" y="360" width="140" height="440" as="geometry" />
        </mxCell>
        <mxCell id="1wTuDXeft89T_cNOT2cx-3" value="SOW" style="text;html=1;align=center;verticalAlign=middle;whiteSpace=wrap;rounded=0;" vertex="1" parent="1">
          <mxGeometry x="110" y="360" width="60" height="30" as="geometry" />
        </mxCell>
        <mxCell id="1wTuDXeft89T_cNOT2cx-4" value="" style="rounded=0;whiteSpace=wrap;html=1;" vertex="1" parent="1">
          <mxGeometry x="80" y="390" width="120" height="70" as="geometry" />
        </mxCell>
        <mxCell id="1wTuDXeft89T_cNOT2cx-5" value="金币余额：" style="text;html=1;align=center;verticalAlign=middle;whiteSpace=wrap;rounded=0;" vertex="1" parent="1">
          <mxGeometry x="80" y="390" width="70" height="30" as="geometry" />
        </mxCell>
        <mxCell id="1wTuDXeft89T_cNOT2cx-6" value="充值" style="rounded=1;whiteSpace=wrap;html=1;" vertex="1" parent="1">
          <mxGeometry x="115" y="430" width="50" height="20" as="geometry" />
        </mxCell>
        <mxCell id="1wTuDXeft89T_cNOT2cx-7" value="会员订阅管理" style="text;html=1;align=center;verticalAlign=middle;whiteSpace=wrap;rounded=0;strokeColor=default;" vertex="1" parent="1">
          <mxGeometry x="100" y="470" width="80" height="30" as="geometry" />
        </mxCell>
        <mxCell id="1wTuDXeft89T_cNOT2cx-19" value="Max session：6 小时" style="text;html=1;align=center;verticalAlign=middle;whiteSpace=wrap;rounded=0;" vertex="1" parent="1">
          <mxGeometry x="290" y="540" width="135" height="30" as="geometry" />
        </mxCell>
        <mxCell id="1wTuDXeft89T_cNOT2cx-22" value="" style="group" vertex="1" connectable="0" parent="1">
          <mxGeometry x="283" y="390" width="177" height="260" as="geometry" />
        </mxCell>
        <mxCell id="1wTuDXeft89T_cNOT2cx-8" value="" style="rounded=0;whiteSpace=wrap;html=1;" vertex="1" parent="1wTuDXeft89T_cNOT2cx-22">
          <mxGeometry x="18.81" width="158.19" height="260" as="geometry" />
        </mxCell>
        <mxCell id="1wTuDXeft89T_cNOT2cx-10" value="Priority" style="text;html=1;align=center;verticalAlign=middle;whiteSpace=wrap;rounded=0;" vertex="1" parent="1wTuDXeft89T_cNOT2cx-22">
          <mxGeometry x="57.525" width="66.375" height="30" as="geometry" />
        </mxCell>
        <mxCell id="1wTuDXeft89T_cNOT2cx-12" value="每月***$（可显示原价和折后价格）" style="text;html=1;align=center;verticalAlign=middle;whiteSpace=wrap;rounded=0;" vertex="1" parent="1wTuDXeft89T_cNOT2cx-22">
          <mxGeometry x="50.887499999999996" y="30" width="94.03125" height="30" as="geometry" />
        </mxCell>
        <mxCell id="1wTuDXeft89T_cNOT2cx-15" value="设备：Geforce4070" style="text;html=1;align=center;verticalAlign=middle;whiteSpace=wrap;rounded=0;" vertex="1" parent="1wTuDXeft89T_cNOT2cx-22">
          <mxGeometry x="24.3375" y="70" width="132.75" height="30" as="geometry" />
        </mxCell>
        <mxCell id="1wTuDXeft89T_cNOT2cx-16" value="RTX：On" style="text;html=1;align=center;verticalAlign=middle;whiteSpace=wrap;rounded=0;" vertex="1" parent="1wTuDXeft89T_cNOT2cx-22">
          <mxGeometry x="13.274999999999999" y="90" width="98.45625" height="30" as="geometry" />
        </mxCell>
        <mxCell id="1wTuDXeft89T_cNOT2cx-17" value="Max resolution：up to 1080p" style="text;html=1;align=center;verticalAlign=middle;whiteSpace=wrap;rounded=0;" vertex="1" parent="1wTuDXeft89T_cNOT2cx-22">
          <mxGeometry x="13.27" y="110" width="156.73" height="30" as="geometry" />
        </mxCell>
        <mxCell id="1wTuDXeft89T_cNOT2cx-18" value="Max Frame/s：60" style="text;html=1;align=center;verticalAlign=middle;whiteSpace=wrap;rounded=0;" vertex="1" parent="1wTuDXeft89T_cNOT2cx-22">
          <mxGeometry y="130" width="149.34375" height="30" as="geometry" />
        </mxCell>
        <mxCell id="1wTuDXeft89T_cNOT2cx-20" value="排队时长：短" style="text;html=1;align=center;verticalAlign=middle;whiteSpace=wrap;rounded=0;" vertex="1" parent="1wTuDXeft89T_cNOT2cx-22">
          <mxGeometry x="7.7437499999999995" y="165" width="149.34375" height="30" as="geometry" />
        </mxCell>
        <mxCell id="1wTuDXeft89T_cNOT2cx-21" value="每日最大使用时长：12小时" style="text;html=1;align=center;verticalAlign=middle;whiteSpace=wrap;rounded=0;" vertex="1" parent="1wTuDXeft89T_cNOT2cx-22">
          <mxGeometry x="7.7437499999999995" y="190" width="149.34375" height="30" as="geometry" />
        </mxCell>
        <mxCell id="1wTuDXeft89T_cNOT2cx-36" value="Steam游戏免下载：支持" style="text;html=1;align=center;verticalAlign=middle;whiteSpace=wrap;rounded=0;" vertex="1" parent="1wTuDXeft89T_cNOT2cx-22">
          <mxGeometry x="7.74" y="220" width="162.26" height="30" as="geometry" />
        </mxCell>
        <mxCell id="1wTuDXeft89T_cNOT2cx-23" value="" style="group" vertex="1" connectable="0" parent="1">
          <mxGeometry x="470" y="390" width="180" height="260" as="geometry" />
        </mxCell>
        <mxCell id="1wTuDXeft89T_cNOT2cx-24" value="" style="rounded=0;whiteSpace=wrap;html=1;" vertex="1" parent="1wTuDXeft89T_cNOT2cx-23">
          <mxGeometry x="20.82" width="159.18" height="260" as="geometry" />
        </mxCell>
        <mxCell id="1wTuDXeft89T_cNOT2cx-26" value="每月***$（可显示原价和折后价格）" style="text;html=1;align=center;verticalAlign=middle;whiteSpace=wrap;rounded=0;" vertex="1" parent="1wTuDXeft89T_cNOT2cx-23">
          <mxGeometry x="56.3265306122449" y="30" width="104.08163265306125" height="30" as="geometry" />
        </mxCell>
        <mxCell id="1wTuDXeft89T_cNOT2cx-27" value="设备：Geforce4090" style="text;html=1;align=center;verticalAlign=middle;whiteSpace=wrap;rounded=0;" vertex="1" parent="1wTuDXeft89T_cNOT2cx-23">
          <mxGeometry x="26.938775510204085" y="70" width="146.93877551020407" height="30" as="geometry" />
        </mxCell>
        <mxCell id="1wTuDXeft89T_cNOT2cx-28" value="RTX：On" style="text;html=1;align=center;verticalAlign=middle;whiteSpace=wrap;rounded=0;" vertex="1" parent="1wTuDXeft89T_cNOT2cx-23">
          <mxGeometry x="14.693877551020408" y="90" width="108.97959183673471" height="30" as="geometry" />
        </mxCell>
        <mxCell id="1wTuDXeft89T_cNOT2cx-29" value="Max resolution：up to 4k" style="text;html=1;align=center;verticalAlign=middle;whiteSpace=wrap;rounded=0;" vertex="1" parent="1wTuDXeft89T_cNOT2cx-23">
          <mxGeometry x="14.693877551020408" y="110" width="165.30612244897964" height="30" as="geometry" />
        </mxCell>
        <mxCell id="1wTuDXeft89T_cNOT2cx-30" value="360" style="text;html=1;align=center;verticalAlign=middle;whiteSpace=wrap;rounded=0;" vertex="1" parent="1wTuDXeft89T_cNOT2cx-23">
          <mxGeometry y="130" width="165.30612244897964" height="30" as="geometry" />
        </mxCell>
        <mxCell id="1wTuDXeft89T_cNOT2cx-31" value="排队时长：非常短" style="text;html=1;align=center;verticalAlign=middle;whiteSpace=wrap;rounded=0;" vertex="1" parent="1wTuDXeft89T_cNOT2cx-23">
          <mxGeometry x="8.571428571428571" y="165" width="165.30612244897964" height="30" as="geometry" />
        </mxCell>
        <mxCell id="1wTuDXeft89T_cNOT2cx-32" value="每日最大使用时长：不限" style="text;html=1;align=center;verticalAlign=middle;whiteSpace=wrap;rounded=0;" vertex="1" parent="1wTuDXeft89T_cNOT2cx-23">
          <mxGeometry x="8.571428571428571" y="190" width="165.30612244897964" height="30" as="geometry" />
        </mxCell>
        <mxCell id="1wTuDXeft89T_cNOT2cx-11" value="Platium" style="text;html=1;align=center;verticalAlign=middle;whiteSpace=wrap;rounded=0;" vertex="1" parent="1wTuDXeft89T_cNOT2cx-23">
          <mxGeometry x="71.6326530612245" width="73.46938775510203" height="30" as="geometry" />
        </mxCell>
        <mxCell id="1wTuDXeft89T_cNOT2cx-37" value="Steam游戏免下载：支持" style="text;html=1;align=center;verticalAlign=middle;whiteSpace=wrap;rounded=0;" vertex="1" parent="1wTuDXeft89T_cNOT2cx-23">
          <mxGeometry x="10.090000000000032" y="220" width="162.26" height="30" as="geometry" />
        </mxCell>
        <mxCell id="1wTuDXeft89T_cNOT2cx-34" value="play" style="rounded=1;whiteSpace=wrap;html=1;" vertex="1" parent="1">
          <mxGeometry x="364" y="660" width="50" height="20" as="geometry" />
        </mxCell>
        <mxCell id="1wTuDXeft89T_cNOT2cx-35" value="upgrade" style="rounded=1;whiteSpace=wrap;html=1;" vertex="1" parent="1">
          <mxGeometry x="535" y="660" width="50" height="20" as="geometry" />
        </mxCell>
        <mxCell id="1wTuDXeft89T_cNOT2cx-38" value="交易管理" style="text;html=1;align=center;verticalAlign=middle;whiteSpace=wrap;rounded=0;" vertex="1" parent="1">
          <mxGeometry x="70" y="510" width="80" height="30" as="geometry" />
        </mxCell>
        <mxCell id="1wTuDXeft89T_cNOT2cx-39" value="&lt;u&gt;充值订单&lt;/u&gt;" style="text;html=1;align=center;verticalAlign=middle;whiteSpace=wrap;rounded=0;" vertex="1" parent="1">
          <mxGeometry x="90" y="530" width="80" height="30" as="geometry" />
        </mxCell>
        <mxCell id="1wTuDXeft89T_cNOT2cx-40" value="&lt;u&gt;消费订单&lt;/u&gt;" style="text;html=1;align=center;verticalAlign=middle;whiteSpace=wrap;rounded=0;" vertex="1" parent="1">
          <mxGeometry x="90" y="554.5" width="80" height="30" as="geometry" />
        </mxCell>
        <mxCell id="1wTuDXeft89T_cNOT2cx-41" value="&lt;u&gt;金币消费规则&lt;/u&gt;" style="text;html=1;align=center;verticalAlign=middle;whiteSpace=wrap;rounded=0;" vertex="1" parent="1">
          <mxGeometry x="100" y="580" width="80" height="30" as="geometry" />
        </mxCell>
        <mxCell id="1wTuDXeft89T_cNOT2cx-42" value="信息与支持" style="text;html=1;align=center;verticalAlign=middle;whiteSpace=wrap;rounded=0;" vertex="1" parent="1">
          <mxGeometry x="70" y="610" width="80" height="30" as="geometry" />
        </mxCell>
        <mxCell id="1wTuDXeft89T_cNOT2cx-43" value="&lt;u&gt;操作手册&lt;/u&gt;" style="text;html=1;align=center;verticalAlign=middle;whiteSpace=wrap;rounded=0;" vertex="1" parent="1">
          <mxGeometry x="90" y="630" width="80" height="30" as="geometry" />
        </mxCell>
        <mxCell id="1wTuDXeft89T_cNOT2cx-44" value="&lt;u&gt;问题反馈&lt;/u&gt;" style="text;html=1;align=center;verticalAlign=middle;whiteSpace=wrap;rounded=0;" vertex="1" parent="1">
          <mxGeometry x="90" y="655" width="80" height="30" as="geometry" />
        </mxCell>
        <mxCell id="1wTuDXeft89T_cNOT2cx-45" value="活动" style="text;html=1;align=center;verticalAlign=middle;whiteSpace=wrap;rounded=0;" vertex="1" parent="1">
          <mxGeometry x="50" y="685" width="80" height="30" as="geometry" />
        </mxCell>
        <mxCell id="1wTuDXeft89T_cNOT2cx-46" value="&lt;u&gt;体验码兑换&lt;/u&gt;" style="text;html=1;align=center;verticalAlign=middle;whiteSpace=wrap;rounded=0;" vertex="1" parent="1">
          <mxGeometry x="85" y="705" width="80" height="30" as="geometry" />
        </mxCell>
        <mxCell id="1wTuDXeft89T_cNOT2cx-47" value="会员订阅管理" style="text;html=1;align=center;verticalAlign=middle;whiteSpace=wrap;rounded=0;" vertex="1" parent="1">
          <mxGeometry x="75" y="320" width="90" height="30" as="geometry" />
        </mxCell>
        <mxCell id="1wTuDXeft89T_cNOT2cx-48" value="&lt;h1 style=&quot;margin-top: 0px;&quot;&gt;&lt;br&gt;&lt;/h1&gt;&lt;p&gt;注：已经订阅后可以直接play进入云电脑&lt;/p&gt;" style="text;html=1;whiteSpace=wrap;overflow=hidden;rounded=0;" vertex="1" parent="1">
          <mxGeometry x="380" y="680" width="180" height="120" as="geometry" />
        </mxCell>
        <mxCell id="1wTuDXeft89T_cNOT2cx-49" value="" style="rounded=0;whiteSpace=wrap;html=1;" vertex="1" parent="1">
          <mxGeometry x="80" y="920" width="1180" height="440" as="geometry" />
        </mxCell>
        <mxCell id="1wTuDXeft89T_cNOT2cx-50" value="" style="rounded=0;whiteSpace=wrap;html=1;" vertex="1" parent="1">
          <mxGeometry x="80" y="920" width="140" height="440" as="geometry" />
        </mxCell>
        <mxCell id="1wTuDXeft89T_cNOT2cx-51" value="SOW" style="text;html=1;align=center;verticalAlign=middle;whiteSpace=wrap;rounded=0;" vertex="1" parent="1">
          <mxGeometry x="120" y="920" width="60" height="30" as="geometry" />
        </mxCell>
        <mxCell id="1wTuDXeft89T_cNOT2cx-52" value="" style="rounded=0;whiteSpace=wrap;html=1;" vertex="1" parent="1">
          <mxGeometry x="90" y="950" width="120" height="70" as="geometry" />
        </mxCell>
        <mxCell id="1wTuDXeft89T_cNOT2cx-53" value="金币余额：" style="text;html=1;align=center;verticalAlign=middle;whiteSpace=wrap;rounded=0;" vertex="1" parent="1">
          <mxGeometry x="90" y="950" width="70" height="30" as="geometry" />
        </mxCell>
        <mxCell id="1wTuDXeft89T_cNOT2cx-54" value="充值" style="rounded=1;whiteSpace=wrap;html=1;" vertex="1" parent="1">
          <mxGeometry x="125" y="990" width="50" height="20" as="geometry" />
        </mxCell>
        <mxCell id="1wTuDXeft89T_cNOT2cx-55" value="会员订阅管理" style="text;html=1;align=center;verticalAlign=middle;whiteSpace=wrap;rounded=0;strokeColor=default;" vertex="1" parent="1">
          <mxGeometry x="110" y="1030" width="80" height="30" as="geometry" />
        </mxCell>
        <mxCell id="1wTuDXeft89T_cNOT2cx-81" value="交易管理" style="text;html=1;align=center;verticalAlign=middle;whiteSpace=wrap;rounded=0;" vertex="1" parent="1">
          <mxGeometry x="80" y="1070" width="80" height="30" as="geometry" />
        </mxCell>
        <mxCell id="1wTuDXeft89T_cNOT2cx-82" value="&lt;u&gt;充值订单&lt;/u&gt;" style="text;html=1;align=center;verticalAlign=middle;whiteSpace=wrap;rounded=0;" vertex="1" parent="1">
          <mxGeometry x="100" y="1090" width="80" height="30" as="geometry" />
        </mxCell>
        <mxCell id="1wTuDXeft89T_cNOT2cx-83" value="&lt;u&gt;消费订单&lt;/u&gt;" style="text;html=1;align=center;verticalAlign=middle;whiteSpace=wrap;rounded=0;" vertex="1" parent="1">
          <mxGeometry x="100" y="1114.5" width="80" height="30" as="geometry" />
        </mxCell>
        <mxCell id="1wTuDXeft89T_cNOT2cx-84" value="&lt;u&gt;金币消费规则&lt;/u&gt;" style="text;html=1;align=center;verticalAlign=middle;whiteSpace=wrap;rounded=0;" vertex="1" parent="1">
          <mxGeometry x="110" y="1140" width="80" height="30" as="geometry" />
        </mxCell>
        <mxCell id="1wTuDXeft89T_cNOT2cx-85" value="信息与支持" style="text;html=1;align=center;verticalAlign=middle;whiteSpace=wrap;rounded=0;" vertex="1" parent="1">
          <mxGeometry x="80" y="1170" width="80" height="30" as="geometry" />
        </mxCell>
        <mxCell id="1wTuDXeft89T_cNOT2cx-86" value="&lt;u&gt;操作手册&lt;/u&gt;" style="text;html=1;align=center;verticalAlign=middle;whiteSpace=wrap;rounded=0;" vertex="1" parent="1">
          <mxGeometry x="100" y="1190" width="80" height="30" as="geometry" />
        </mxCell>
        <mxCell id="1wTuDXeft89T_cNOT2cx-87" value="&lt;u&gt;问题反馈&lt;/u&gt;" style="text;html=1;align=center;verticalAlign=middle;whiteSpace=wrap;rounded=0;" vertex="1" parent="1">
          <mxGeometry x="100" y="1215" width="80" height="30" as="geometry" />
        </mxCell>
        <mxCell id="1wTuDXeft89T_cNOT2cx-88" value="活动" style="text;html=1;align=center;verticalAlign=middle;whiteSpace=wrap;rounded=0;" vertex="1" parent="1">
          <mxGeometry x="60" y="1245" width="80" height="30" as="geometry" />
        </mxCell>
        <mxCell id="1wTuDXeft89T_cNOT2cx-89" value="&lt;u&gt;体验码兑换&lt;/u&gt;" style="text;html=1;align=center;verticalAlign=middle;whiteSpace=wrap;rounded=0;" vertex="1" parent="1">
          <mxGeometry x="95" y="1265" width="80" height="30" as="geometry" />
        </mxCell>
        <mxCell id="1wTuDXeft89T_cNOT2cx-91" value="我的云电脑：" style="text;html=1;align=center;verticalAlign=middle;whiteSpace=wrap;rounded=0;" vertex="1" parent="1">
          <mxGeometry x="230" y="940" width="80" height="30" as="geometry" />
        </mxCell>
        <mxCell id="1wTuDXeft89T_cNOT2cx-92" value="" style="rounded=0;whiteSpace=wrap;html=1;" vertex="1" parent="1">
          <mxGeometry x="244" y="980" width="276" height="160" as="geometry" />
        </mxCell>
        <mxCell id="1wTuDXeft89T_cNOT2cx-93" value="4070显卡系列" style="rounded=1;whiteSpace=wrap;html=1;" vertex="1" parent="1">
          <mxGeometry x="245" y="980" width="95" height="20" as="geometry" />
        </mxCell>
        <mxCell id="1wTuDXeft89T_cNOT2cx-94" value="会员专属logo" style="rounded=1;whiteSpace=wrap;html=1;" vertex="1" parent="1">
          <mxGeometry x="332.5" y="970" width="50" height="20" as="geometry" />
        </mxCell>
        <mxCell id="1wTuDXeft89T_cNOT2cx-96" value="（推荐带宽）" style="text;html=1;align=center;verticalAlign=middle;whiteSpace=wrap;rounded=0;" vertex="1" parent="1">
          <mxGeometry x="420" y="1020" width="60" height="30" as="geometry" />
        </mxCell>
        <mxCell id="1wTuDXeft89T_cNOT2cx-97" value="最高帧率（下拉）" style="rounded=1;whiteSpace=wrap;html=1;" vertex="1" parent="1">
          <mxGeometry x="250" y="1070" width="95" height="20" as="geometry" />
        </mxCell>
        <mxCell id="1wTuDXeft89T_cNOT2cx-98" value="play" style="rounded=1;whiteSpace=wrap;html=1;" vertex="1" parent="1">
          <mxGeometry x="425" y="1070" width="85" height="20" as="geometry" />
        </mxCell>
        <mxCell id="1wTuDXeft89T_cNOT2cx-99" value="首页" style="text;html=1;align=center;verticalAlign=middle;whiteSpace=wrap;rounded=0;" vertex="1" parent="1">
          <mxGeometry x="85" y="880" width="60" height="30" as="geometry" />
        </mxCell>
        <mxCell id="1wTuDXeft89T_cNOT2cx-100" value="logo：会员支付" style="rounded=1;whiteSpace=wrap;html=1;" vertex="1" parent="1">
          <mxGeometry x="244" y="1110" width="95" height="30" as="geometry" />
        </mxCell>
        <mxCell id="1wTuDXeft89T_cNOT2cx-101" value="到期时间&lt;div&gt;如果是会员才有，金币没有&lt;br&gt;&lt;/div&gt;" style="text;html=1;align=center;verticalAlign=middle;whiteSpace=wrap;rounded=0;" vertex="1" parent="1">
          <mxGeometry x="365" y="1110" width="155" height="30" as="geometry" />
        </mxCell>
        <mxCell id="1wTuDXeft89T_cNOT2cx-102" value="sku名称或会员名称" style="text;html=1;align=center;verticalAlign=middle;whiteSpace=wrap;rounded=0;dashed=1;strokeColor=default;" vertex="1" parent="1">
          <mxGeometry x="294" y="1020" width="126" height="30" as="geometry" />
        </mxCell>
        <mxCell id="1wTuDXeft89T_cNOT2cx-103" value="" style="rounded=0;whiteSpace=wrap;html=1;" vertex="1" parent="1">
          <mxGeometry x="535" y="980" width="276" height="160" as="geometry" />
        </mxCell>
        <mxCell id="1wTuDXeft89T_cNOT2cx-104" value="4090显卡系列" style="rounded=1;whiteSpace=wrap;html=1;" vertex="1" parent="1">
          <mxGeometry x="536" y="980" width="95" height="20" as="geometry" />
        </mxCell>
        <mxCell id="1wTuDXeft89T_cNOT2cx-105" value="会员专属logo" style="rounded=1;whiteSpace=wrap;html=1;" vertex="1" parent="1">
          <mxGeometry x="623.5" y="970" width="50" height="20" as="geometry" />
        </mxCell>
        <mxCell id="1wTuDXeft89T_cNOT2cx-106" value="（推荐带宽）" style="text;html=1;align=center;verticalAlign=middle;whiteSpace=wrap;rounded=0;" vertex="1" parent="1">
          <mxGeometry x="711" y="1020" width="60" height="30" as="geometry" />
        </mxCell>
        <mxCell id="1wTuDXeft89T_cNOT2cx-107" value="360（下拉）" style="rounded=1;whiteSpace=wrap;html=1;" vertex="1" parent="1">
          <mxGeometry x="540" y="1070" width="95" height="20" as="geometry" />
        </mxCell>
        <mxCell id="1wTuDXeft89T_cNOT2cx-108" value="play" style="rounded=1;whiteSpace=wrap;html=1;" vertex="1" parent="1">
          <mxGeometry x="716" y="1070" width="85" height="20" as="geometry" />
        </mxCell>
        <mxCell id="1wTuDXeft89T_cNOT2cx-109" value="logo：会员支付）" style="rounded=1;whiteSpace=wrap;html=1;" vertex="1" parent="1">
          <mxGeometry x="535" y="1110" width="95" height="30" as="geometry" />
        </mxCell>
        <mxCell id="1wTuDXeft89T_cNOT2cx-110" value="到期时间&lt;div&gt;如果是会员才有，金币没有&lt;br&gt;&lt;/div&gt;" style="text;html=1;align=center;verticalAlign=middle;whiteSpace=wrap;rounded=0;" vertex="1" parent="1">
          <mxGeometry x="656" y="1110" width="155" height="30" as="geometry" />
        </mxCell>
        <mxCell id="1wTuDXeft89T_cNOT2cx-111" value="Platinum" style="text;html=1;align=center;verticalAlign=middle;whiteSpace=wrap;rounded=0;dashed=1;strokeColor=default;" vertex="1" parent="1">
          <mxGeometry x="585" y="1020" width="126" height="30" as="geometry" />
        </mxCell>
        <mxCell id="1wTuDXeft89T_cNOT2cx-112" value="自适应" style="rounded=1;whiteSpace=wrap;html=1;" vertex="1" parent="1">
          <mxGeometry x="643" y="1070" width="60" height="20" as="geometry" />
        </mxCell>
        <mxCell id="1wTuDXeft89T_cNOT2cx-113" value="自适应" style="rounded=1;whiteSpace=wrap;html=1;" vertex="1" parent="1">
          <mxGeometry x="359" y="1070" width="60" height="20" as="geometry" />
        </mxCell>
        <mxCell id="1wTuDXeft89T_cNOT2cx-114" value="" style="rounded=0;whiteSpace=wrap;html=1;" vertex="1" parent="1">
          <mxGeometry x="840" y="980" width="276" height="160" as="geometry" />
        </mxCell>
        <mxCell id="1wTuDXeft89T_cNOT2cx-115" value="4090显卡系列" style="rounded=1;whiteSpace=wrap;html=1;" vertex="1" parent="1">
          <mxGeometry x="841" y="980" width="95" height="20" as="geometry" />
        </mxCell>
        <mxCell id="1wTuDXeft89T_cNOT2cx-117" value="（推荐带宽）" style="text;html=1;align=center;verticalAlign=middle;whiteSpace=wrap;rounded=0;" vertex="1" parent="1">
          <mxGeometry x="1016" y="1020" width="60" height="30" as="geometry" />
        </mxCell>
        <mxCell id="1wTuDXeft89T_cNOT2cx-118" value="60（下拉）" style="rounded=1;whiteSpace=wrap;html=1;" vertex="1" parent="1">
          <mxGeometry x="845" y="1070" width="95" height="20" as="geometry" />
        </mxCell>
        <mxCell id="1wTuDXeft89T_cNOT2cx-119" value="play" style="rounded=1;whiteSpace=wrap;html=1;" vertex="1" parent="1">
          <mxGeometry x="1021" y="1070" width="85" height="20" as="geometry" />
        </mxCell>
        <mxCell id="1wTuDXeft89T_cNOT2cx-120" value="logo：金币支付" style="rounded=1;whiteSpace=wrap;html=1;" vertex="1" parent="1">
          <mxGeometry x="840" y="1110" width="95" height="30" as="geometry" />
        </mxCell>
        <mxCell id="1wTuDXeft89T_cNOT2cx-122" value="60帧工作站" style="text;html=1;align=center;verticalAlign=middle;whiteSpace=wrap;rounded=0;dashed=1;strokeColor=default;" vertex="1" parent="1">
          <mxGeometry x="890" y="1020" width="126" height="30" as="geometry" />
        </mxCell>
        <mxCell id="1wTuDXeft89T_cNOT2cx-123" value="2k" style="rounded=1;whiteSpace=wrap;html=1;" vertex="1" parent="1">
          <mxGeometry x="948" y="1070" width="60" height="20" as="geometry" />
        </mxCell>
        <mxCell id="1wTuDXeft89T_cNOT2cx-124" value="结算下机" style="rounded=1;whiteSpace=wrap;html=1;" vertex="1" parent="1">
          <mxGeometry x="1021" y="1100" width="85" height="20" as="geometry" />
        </mxCell>
        <mxCell id="1wTuDXeft89T_cNOT2cx-125" value="注：1、如果升级到Platinum，则proirity也可以玩；2、每次只能进入一个；3、会员的机器不能挂机，退出及关机，而金币支付的按需使用的机器是可以挂机的，所以没有关机的情况下是在消耗金币" style="text;html=1;align=center;verticalAlign=middle;whiteSpace=wrap;rounded=0;" vertex="1" parent="1">
          <mxGeometry x="496" y="1170" width="315" height="30" as="geometry" />
        </mxCell>
        <mxCell id="1wTuDXeft89T_cNOT2cx-126" value="首页下半部分和目前海马云电脑的设计保持一致，都是各种SKU&lt;div&gt;目的：&lt;/div&gt;&lt;div&gt;让用户能理解可以充值进行各种设备的使用&lt;/div&gt;" style="text;html=1;align=left;verticalAlign=middle;whiteSpace=wrap;rounded=0;" vertex="1" parent="1">
          <mxGeometry x="378" y="1310" width="570" height="30" as="geometry" />
        </mxCell>
        <mxCell id="1wTuDXeft89T_cNOT2cx-127" value="&lt;h1 style=&quot;margin-top: 0px;&quot;&gt;关于首次进入SOW&lt;/h1&gt;&lt;p&gt;首次进入后会送用户金币，让用户体验试玩，和现在云电脑流程一致：&lt;/p&gt;&lt;p&gt;因为海外用户可能大概率不明白金币的含义已经按需扣费，所以通过首次进入送金币的行为引导用户使用；当使用后退出云实例，再引导用户进入会员订阅页面——可能这种方式对于用户是比较熟悉的，这种方式让用户能知道除了计时扣费也有订阅模式供用户选择。&lt;/p&gt;" style="text;html=1;whiteSpace=wrap;overflow=hidden;rounded=0;" vertex="1" parent="1">
          <mxGeometry x="400" y="1430" width="350" height="310" as="geometry" />
        </mxCell>
      </root>
    </mxGraphModel>
  </diagram>
</mxfile>
